<svg width="14" height="14" viewBox="0 0 14 14" fill="none" xmlns="http://www.w3.org/2000/svg">
<path d="M8.7374 9.77411L9.09022 9.93668L9.33495 9.63498C9.53657 9.38644 9.79074 9.18565 10.0792 9.04703C10.3672 8.90865 10.6822 8.83568 11.0017 8.83333C11.4296 8.83367 11.8479 8.96072 12.2037 9.19848C12.56 9.43655 12.8377 9.77494 13.0017 10.1708C13.1657 10.5668 13.2086 11.0024 13.125 11.4227C13.0414 11.843 12.8351 12.229 12.532 12.5321C12.229 12.8351 11.843 13.0414 11.4227 13.125C11.0024 13.2086 10.5667 13.1657 10.1708 13.0017C9.77492 12.8377 9.43654 12.56 9.19846 12.2037C8.96097 11.8483 8.83393 11.4306 8.83331 11.0031C8.83512 10.8739 8.84791 10.7451 8.87154 10.6181L8.94276 10.2353L8.58902 10.0725L5.06902 8.45246L4.75644 8.3086L4.51042 8.54916C4.2055 8.84731 3.81938 9.04884 3.40044 9.12851C2.98149 9.20819 2.54835 9.16245 2.15528 8.99705C1.76221 8.83164 1.42669 8.55392 1.19076 8.19867C0.954828 7.84342 0.828979 7.42645 0.828979 7C0.828979 6.57354 0.954828 6.15657 1.19076 5.80132C1.42669 5.44607 1.76221 5.16835 2.15528 5.00294C2.54835 4.83754 2.98149 4.7918 3.40044 4.87148C3.81938 4.95115 4.2055 5.15268 4.51042 5.45083L4.75644 5.69139L5.06902 5.54753L8.58902 3.92753L8.94276 3.76473L8.87154 3.38188C8.84779 3.25421 8.83499 3.12474 8.83329 2.99488C8.82941 2.48456 9.0058 1.98924 9.33138 1.59623C9.65718 1.20294 10.1114 0.937378 10.614 0.846416C11.1165 0.755454 11.6351 0.844937 12.0781 1.09907C12.521 1.35321 12.86 1.75566 13.0352 2.2354C13.2103 2.71514 13.2104 3.24133 13.0353 3.72111C12.8602 4.20088 12.5213 4.60339 12.0784 4.85761C11.6354 5.11183 11.1169 5.2014 10.6144 5.11053C10.1118 5.01966 9.65751 4.75418 9.33163 4.36095L9.08642 4.06506L8.7374 4.22589L5.3374 5.79255L4.93318 5.97881L5.07135 6.40188C5.19827 6.79052 5.19827 7.20947 5.07135 7.59811L4.93318 8.02118L5.3374 8.20744L8.7374 9.77411ZM12.0185 1.47563C11.717 1.27419 11.3626 1.16666 11 1.16666C10.5137 1.16666 10.0474 1.35982 9.70362 1.70363C9.3598 2.04745 9.16664 2.51376 9.16664 2.99999C9.16664 3.36259 9.27417 3.71705 9.47562 4.01854C9.67707 4.32003 9.96339 4.55501 10.2984 4.69377C10.6334 4.83253 11.002 4.86884 11.3576 4.7981C11.7133 4.72736 12.0399 4.55275 12.2963 4.29636C12.5527 4.03996 12.7273 3.71329 12.7981 3.35766C12.8688 3.00203 12.8325 2.63341 12.6938 2.29841C12.555 1.96341 12.32 1.67708 12.0185 1.47563ZM1.98143 8.52436C2.28292 8.72581 2.63738 8.83333 2.99998 8.83333C3.48621 8.83333 3.95252 8.64017 4.29634 8.29636C4.64016 7.95254 4.83331 7.48623 4.83331 7C4.83331 6.6374 4.72579 6.28294 4.52434 5.98145C4.32289 5.67996 4.03656 5.44498 3.70156 5.30622C3.36657 5.16746 2.99794 5.13115 2.64231 5.20189C2.28668 5.27263 1.96001 5.44724 1.70362 5.70363C1.44722 5.96003 1.27261 6.2867 1.20187 6.64233C1.13113 6.99796 1.16744 7.36658 1.3062 7.70158C1.44496 8.03658 1.67994 8.32291 1.98143 8.52436ZM9.98143 12.5244C10.2829 12.7258 10.6374 12.8333 11 12.8333C11.4862 12.8333 11.9525 12.6402 12.2963 12.2964C12.6402 11.9525 12.8333 11.4862 12.8333 11C12.8333 10.6374 12.7258 10.2829 12.5243 9.98145C12.3229 9.67996 12.0366 9.44498 11.7016 9.30622C11.3666 9.16746 10.9979 9.13115 10.6423 9.20189C10.2867 9.27263 9.96001 9.44724 9.70362 9.70363C9.44722 9.96003 9.27261 10.2867 9.20187 10.6423C9.13113 10.998 9.16744 11.3666 9.3062 11.7016C9.44496 12.0366 9.67994 12.3229 9.98143 12.5244Z" fill="white" stroke="white"/>
</svg>
